<svg xmlns="http://www.w3.org/2000/svg" width="150" height="150" viewBox="0 0 150 150"><path d="m37.4 54.7c0 0 4-5.6 3.8-8.8-0.4-5.4-8.7-13.9-8.7-13.9 0 0 8.4 8.3 13.9 8.7 3.2 0.2 8.8-3.8 8.8-3.8 0 0-4.2 5.2-4.3 8.3-0.1 3.6 4.7 9.9 4.7 9.9 0 0-6.2-4.7-9.9-4.7-3.1 0.1-8.3 4.3-8.3 4.3zm17.8 58.9c0 0-5.6-4-8.8-3.8-5.4 0.4-13.9 8.7-13.9 8.7 0 0 8.3-8.4 8.7-13.9 0.2-3.2-3.8-8.8-3.8-8.8 0 0 5.2 4.2 8.3 4.3 3.6 0.1 9.9-4.7 9.9-4.7 0 0-4.7 6.2-4.7 9.9 0.1 3.1 4.3 8.3 4.3 8.3zm58-17.7c0 0-4 5.6-3.8 8.8 0.4 5.4 8.7 13.9 8.7 13.9 0 0-8.4-8.3-13.9-8.7-3.2-0.2-8.8 3.8-8.8 3.8 0 0 4.2-5.2 4.3-8.3 0.1-3.6-4.7-9.9-4.7-9.9 0 0 6.2 4.7 9.9 4.7 3.1-0.1 8.3-4.3 8.3-4.3zm-17.8-58.9c0 0 5.6 4 8.8 3.8 5.4-0.4 13.9-8.7 13.9-8.7 0 0-8.3 8.4-8.7 13.9-0.2 3.2 3.8 8.8 3.8 8.8 0 0-5.2-4.2-8.3-4.3-3.6-0.1-9.9 4.7-9.9 4.7 0 0 4.7-6.2 4.7-9.9-0.1-3.1-4.3-8.3-4.3-8.3zm-20.3-22c0 0 4.9 32.1 15.5 43 10.9 11.2 43.7 17 43.7 17 0 0-32.8 6.7-43.7 18-10.4 10.7-15.5 42-15.5 42 0 0-6.1-31.2-16.6-42-10.8-11-42.7-18-42.7-18 0 0 31.9-6.1 42.6-17 10.9-10.9 16.7-43 16.7-43z" style="stroke-width:2;stroke:#000"/></svg>
